# xmcd CD database file
#
# Track frame offsets:
#	151
#	18760
#	20749
#	38319
#	40114
#	56366
#	57573
#	76905
#	79112
#	97064
#	103697
#
# Disc length: 1626 seconds
#
# Revision: 0
# Processed by: cddbd v1.5.2PL0 Copyright (c) Steve Scherf et al.
# Submitted via: CDex 1.51
#
DISCID=7b06580b
DTITLE=Lachie Thomson's New Whispering Gold Orchestra - 36th Australian Jazz Convention, Geelong
DYEAR=1981
DGENRE=Jazz
TTITLE0=You Ain't The One
TTITLE1=intrro - Cabin In The Pines
TTITLE2=Cabin In The Pines
TTITLE3=intro - That Certain Motion
TTITLE4=That Certain Motion
TTITLE5=intro - Hustlin, and Bustlin, For Baby
TTITLE6=Hustlin, and Bustlin, For Baby
TTITLE7=intro - Can I Tell You
TTITLE8=Can I Tell You
TTITLE9=intro - Bugle Call Rag
TTITLE10=Bugle Call Rag (INCOMPLETE)
EXTD=YEAR: 1981
EXTT0=
EXTT1=
EXTT2=
EXTT3=
EXTT4=
EXTT5=
EXTT6=
EXTT7=
EXTT8=
EXTT9=
EXTT10=
PLAYORDER=
